<?xml version="1.0" encoding="UTF-8" standalone="no"?>
<svg
   width="512"
   height="512"
   viewBox="0 0 512 512.00001"
   fill="none"
   preserveAspectRatio="xMinYMin"
   version="1.1"
   id="svg1"
   sodipodi:docname="icon.svg"
   inkscape:version="1.3.2 (091e20e, 2023-11-25, custom)"
   xmlns:inkscape="http://www.inkscape.org/namespaces/inkscape"
   xmlns:sodipodi="http://sodipodi.sourceforge.net/DTD/sodipodi-0.dtd"
   xmlns="http://www.w3.org/2000/svg"
   xmlns:svg="http://www.w3.org/2000/svg">
  <defs
     id="defs1" />
  <sodipodi:namedview
     id="namedview1"
     pagecolor="#ffffff"
     bordercolor="#000000"
     borderopacity="0.25"
     inkscape:showpageshadow="2"
     inkscape:pageopacity="0.0"
     inkscape:pagecheckerboard="0"
     inkscape:deskcolor="#d1d1d1"
     inkscape:zoom="0.59714111"
     inkscape:cx="1402.5161"
     inkscape:cy="149.88082"
     inkscape:window-width="3440"
     inkscape:window-height="1377"
     inkscape:window-x="-8"
     inkscape:window-y="-8"
     inkscape:window-maximized="1"
     inkscape:current-layer="svg1" />
  <path
     fill-rule="evenodd"
     clip-rule="evenodd"
     d="m 331.66795,126.47239 c -9.85452,10.40123 -23.3488,24.67752 -29.99171,31.72401 -6.64066,7.04648 -20.36815,21.57015 -30.5061,32.27574 -47.42722,50.08241 -54.86568,58.26851 -64.26808,70.7115 -5.52862,7.31778 -17.55919,23.28281 -26.73509,35.4791 -9.17365,12.19555 -28.86247,38.28055 -43.75071,57.96633 -14.88824,19.68504 -26.49362,36.05723 -25.79176,36.38192 1.73288,0.80084 0.99425,1.46446 15.60883,-14.02817 22.39127,-23.73572 58.18225,-61.56935 70.18513,-74.19006 6.32945,-6.65641 11.50792,-12.27803 11.50792,-12.49173 0,-0.64787 19.05592,-18.80997 19.1324,-18.23633 0.12822,0.93806 -11.87685,17.58096 -28.76049,39.87322 -62.58389,82.6296 -64.52823,85.28257 -62.86582,85.75723 1.25902,0.35992 31.02279,-30.44912 89.0341,-92.16319 40.86147,-43.46949 39.62575,-41.41116 -32.2773,53.71168 -38.53772,50.98148 -41.27093,57.26146 -10.72882,24.63778 6.59565,-7.04632 18.50702,-19.68578 26.46593,-28.08709 7.95966,-8.40205 19.48481,-20.5976 25.61112,-27.10254 12.9521,-13.75148 31.25217,-33.08784 41.97126,-44.34831 13.06312,-13.72374 5.57138,-12.31927 65.70777,-12.31927 29.38808,0 52.63414,0.39517 53.31726,0.90581 2.08907,1.56119 -9.07767,16.01303 -18.23858,23.60825 -5.16571,4.28314 -15.02847,10.1807 -24.01691,14.36036 -24.8335,11.54842 -50.70479,17.6207 -81.97199,19.24037 -8.72597,0.45216 -16.65117,1.19826 -17.61323,1.65867 -3.05786,1.46445 -51.7613,53.61645 -50.58101,54.16234 0.62312,0.28794 9.62803,1.208 20.01121,2.04559 42.65217,3.4433 93.5294,-0.20696 134.82883,-9.67156 174.31588,-39.95045 209.25584,-159.29341 65.84423,-224.90758 -9.28838,-4.25052 -17.5952,-7.35497 -18.46203,-6.89862 -0.86383,0.45531 -9.54933,11.4715 -19.30111,24.48041 -9.74954,13.0092 -19.21113,25.51818 -21.02427,27.79997 -3.28883,4.13391 -3.27833,4.15866 3.68026,8.63376 13.29033,8.54526 29.94072,27.76914 30.11994,34.77048 0.0255,0.94481 -9.96325,1.232 -42.91236,1.232 h -42.94385 l 1.17801,-2.7107 c 0.64637,-1.48995 11.87686,-16.90159 24.95497,-34.24634 13.08112,-17.34551 27.61919,-36.63717 32.30725,-42.87059 4.69031,-6.23349 13.75523,-18.20761 20.14169,-26.60914 16.6444,-21.88951 15.64935,-24.35134 -2.18731,-5.42043 -5.61862,5.96242 -15.29767,16.16261 -21.50942,22.66703 -6.2095,6.50449 -24.90248,26.22185 -41.53563,43.81532 -27.91088,29.5223 -38.08783,39.73824 -38.32853,38.47624 -0.18146,-0.95156 10.23394,-15.46488 25.45663,-35.47909 8.45229,-11.11201 23.35554,-30.84698 33.12007,-43.85589 9.76453,-13.00891 20.72433,-27.49711 24.35135,-32.19702 6.81162,-8.8195 8.16435,-11.79773 4.59657,-10.1312 -1.10303,0.51444 -17.51497,17.3452 -36.46965,37.40059 -18.95543,20.05546 -39.50879,41.78593 -45.6733,48.29087 -6.16301,6.50419 -13.71699,14.48707 -16.78312,17.73916 -7.40251,7.84718 -16.18098,15.94479 -16.31972,15.05472 -0.12146,-0.7656 55.23688,-74.76255 89.58146,-119.74584 2.16406,-2.83436 3.21835,-5.35731 2.34103,-5.60763 -0.87507,-0.25032 -9.65355,8.05566 -19.50732,18.45787 z m -113.072,-4.1106 c -45.06967,3.42471 -89.48992,14.08014 -126.487504,30.34031 -38.1896,16.78447 -61.97799,35.0286 -79.13003,60.68392 -26.87396,40.1994 -11.4012705,87.11595 40.74198,123.52937 12.11821,8.46279 48.159334,26.76286 52.708674,26.76286 2.33427,0 43.88343,-53.04507 43.88343,-56.02647 0,-0.69961 -2.93045,-3.23934 -6.51322,-5.64412 -35.49483,-23.82644 -40.56682,-57.60339 -12.57871,-83.77612 23.62173,-22.08979 65.71453,-36.17262 114.78465,-38.40582 l 14.7495,-0.67112 5.36895,-6.04423 c 2.95138,-3.32415 12.77741,-13.80525 21.83409,-23.29091 9.05592,-9.48566 18.22507,-19.1093 20.37564,-21.38682 4.50284,-4.76604 5.4799,-4.38954 -15.97778,-6.15266 -14.96699,-1.2299 -57.11299,-1.18364 -73.75967,0.0818 z"
     fill="#284695"
     id="path1"
     style="stroke-width:7.49846"
     sodipodi:nodetypes="cccccccccscccsccsccsccccccccccccccscccccccsscsccccccsccccccssccccccccc" />
</svg>
