<?xml version="1.0" encoding="UTF-8" standalone="no"?>
<svg
   width="3177.9324"
   height="512"
   viewBox="0 0 3177.9324 512.00001"
   fill="none"
   preserveAspectRatio="xMinYMin"
   version="1.1"
   id="svg1"
   sodipodi:docname="logo.svg"
   inkscape:version="1.3.2 (091e20e, 2023-11-25, custom)"
   xmlns:inkscape="http://www.inkscape.org/namespaces/inkscape"
   xmlns:sodipodi="http://sodipodi.sourceforge.net/DTD/sodipodi-0.dtd"
   xmlns="http://www.w3.org/2000/svg"
   xmlns:svg="http://www.w3.org/2000/svg">
  <defs
     id="defs1" />
  <sodipodi:namedview
     id="namedview1"
     pagecolor="#ffffff"
     bordercolor="#000000"
     borderopacity="0.25"
     inkscape:showpageshadow="2"
     inkscape:pageopacity="0.0"
     inkscape:pagecheckerboard="0"
     inkscape:deskcolor="#d1d1d1"
     inkscape:zoom="0.59714111"
     inkscape:cx="1590.0764"
     inkscape:cy="257.05817"
     inkscape:window-width="3440"
     inkscape:window-height="1377"
     inkscape:window-x="-8"
     inkscape:window-y="-8"
     inkscape:window-maximized="1"
     inkscape:current-layer="svg1" />
  <path
     fill-rule="evenodd"
     clip-rule="evenodd"
     d="m 573.7308,31.938606 c -17.04669,17.99241 -40.38957,42.68805 -51.88071,54.8773 -11.48725,12.18925 -35.23353,37.312814 -52.77052,55.831714 -82.04126,86.63431 -94.90856,100.79491 -111.17316,122.31924 -9.5636,12.65854 -30.3745,40.27542 -46.2473,61.37299 -15.8689,21.09628 -49.9273,66.21902 -75.6815,100.27217 -25.7542,34.05187 -45.8296,62.37307 -44.6155,62.93472 2.9976,1.38532 1.7199,2.53327 27.0007,-24.26642 38.7332,-41.05888 100.6457,-106.50481 121.4087,-128.33655 10.9489,-11.5145 19.9068,-21.23897 19.9068,-21.60864 0,-1.12071 32.9636,-32.53813 33.0959,-31.54584 0.2218,1.62269 -20.545,30.41216 -49.7509,68.97409 -108.2598,142.93558 -111.6232,147.52477 -108.7475,148.34585 2.1779,0.62261 53.6643,-52.67195 154.0143,-159.4271 70.6836,-75.19505 68.546,-71.63447 -55.8344,92.91234 -66.6639,88.18955 -71.3919,99.05288 -18.5591,42.6193 11.4094,-12.18898 32.0141,-34.05315 45.7817,-48.58603 13.7689,-14.53417 33.7055,-35.63045 44.303,-46.88292 22.405,-23.78779 54.0611,-57.2365 72.60336,-76.71527 22.59704,-23.7398 9.63757,-21.3103 113.66359,-21.3103 50.83653,0 91.04839,0.68358 92.23006,1.56691 3.61376,2.7006 -15.70287,27.69989 -31.54973,40.83837 -8.93582,7.40912 -25.99677,17.61093 -41.54529,24.84105 -42.95785,19.97687 -87.71091,30.4809 -141.79801,33.28267 -15.09448,0.78216 -28.80378,2.07279 -30.46798,2.86922 -5.2896,2.53326 -89.5385,92.74761 -87.4968,93.69191 1.0779,0.49809 16.6549,2.08965 34.6161,3.53853 73.7812,5.95635 161.79041,-0.35801 233.23161,-16.73019 301.53771,-69.10769 361.97807,-275.55132 113.89966,-389.053024 -16.06737,-7.35269 -30.4368,-12.72288 -31.93627,-11.93346 -1.49428,0.78761 -16.51876,19.84379 -33.38774,42.347054 -16.86509,22.50377 -33.23208,44.14224 -36.36851,48.08936 -5.68914,7.15099 -5.67098,7.1938 6.36624,14.93498 22.99007,14.78192 51.79251,48.03606 52.10252,60.14722 0.0441,1.63436 -17.23477,2.13116 -74.2313,2.13116 h -74.28577 l 2.03777,-4.68907 c 1.11811,-2.57737 20.545,-29.23697 43.16798,-59.24054 22.62817,-30.00486 47.77664,-63.37625 55.8862,-74.159044 8.11346,-10.78291 23.79428,-31.49615 34.84181,-46.02942 28.79205,-37.86523 27.07078,-42.1237998 -3.78369,-9.37645 -9.71928,10.31401 -26.46244,27.95866 -37.20774,39.21023 -10.74141,11.25169 -43.07719,45.359464 -71.84979,75.793274 -48.28121,51.06871 -65.88566,68.74061 -66.30203,66.55756 -0.3139,-1.64604 17.70303,-26.7517 44.03576,-61.37299 14.62107,-19.22195 40.40123,-53.36019 57.29226,-75.863454 16.89103,-22.50326 35.84967,-47.56546 42.12381,-55.69552 11.78299,-15.25628 14.12299,-20.4081298 7.95132,-17.52532 -1.90806,0.8899 -30.29801,30.00434 -63.08649,64.69685 -32.78976,34.692644 -68.34368,72.282764 -79.00727,83.535244 -10.66098,11.25117 -23.72812,25.06026 -29.03202,30.68584 -12.80512,13.57431 -27.99042,27.58185 -28.23042,26.04218 -0.2101,-1.32436 95.55068,-129.326894 154.96114,-207.1405638 3.74347,-4.90298 5.56722,-9.26726 4.04959,-9.70028 -1.51373,-0.43301 -16.69905,13.9349698 -33.74444,31.9290698 z m -195.59589,-7.11066 c -77.9631,5.92419 -154.8028,24.35632 -218.8025,52.48374 C 93.270707,106.34605 52.120707,137.90537 22.450507,182.28486 c -46.4875,69.53833 -19.7223002,150.69622 70.4769,213.68542 20.962503,14.63924 83.307703,46.29533 91.177303,46.29533 4.0379,0 75.9111,-91.75921 75.9111,-96.91654 0,-1.21021 -5.0692,-5.60353 -11.2668,-9.76339 -61.4002,-41.21582 -70.1739,-99.64436 -21.7591,-144.91886 40.8617,-38.21171 113.6753,-62.57269 198.5585,-66.43576 l 25.5142,-1.16092 9.2874,-10.45552 c 5.1054,-5.75024 22.10281,-23.880804 37.76937,-40.289434 15.66525,-16.40863 31.52637,-33.05594 35.2465,-36.99566 7.78917,-8.24447 9.47932,-7.59318 -27.63893,-10.64309 -25.89041,-2.12753 -98.79604,-2.0475 -127.59204,0.14151 z M 2179.8535,166.2616 c -12.7117,12.83366 -81.9906,86.0986 -96.5702,102.11537 -5.5387,6.09385 -13.7624,14.91682 -18.2763,19.6046 -4.501,4.68777 -15.3319,18.11291 -24.0486,29.83364 -8.7166,11.72073 -32.6354,43.48319 -53.1557,70.58381 -20.5204,27.09932 -36.4749,49.65745 -35.4502,50.12571 2.2311,1.0312 17.6927,-14.46024 61.7686,-61.89443 33.1802,-35.71866 53.2077,-54.95228 48.8105,-46.88163 -2.6721,4.88623 -40.6516,56.53346 -66.1399,89.94195 -9.4949,12.42895 -16.629,23.47259 -15.8508,24.53752 0.7653,1.06493 19.4049,-17.16083 41.4039,-40.50111 50.0816,-53.0987 69.2789,-72.49446 70.9782,-71.70711 0.7393,0.33725 -11.2979,17.41896 -26.7465,37.95747 -36.1895,48.12037 -60.6012,81.30187 -60.6012,82.36031 0,3.45552 11.22,-7.0135 38.2,-35.64471 17.2257,-18.28284 44.063,-46.6676 59.6284,-63.0774 36.3581,-38.31938 44.1667,-47.82723 97.9581,-119.33458 2.4645,-3.2817 14.2942,-18.92231 26.2925,-34.75619 11.9983,-15.83389 21.117,-29.64297 20.248,-30.68585 -0.8691,-1.04418 -4.4232,1.17129 -7.8995,4.92125 -38.1092,41.05109 -103.0168,108.14047 -104.1453,107.62552 -1.362,-0.63559 18.86,-29.14747 44.9061,-63.30051 38.5243,-50.49798 42.4805,-56.03017 40.6256,-56.88108 -2.6461,-1.22318 -3.8394,-0.0558 -46.0216,44.94763 -34.0622,36.33348 -67.8391,70.67071 -69.0065,70.1337 -0.6226,-0.29055 12.2966,-18.48907 28.6922,-40.44274 53.8821,-72.09106 58.7204,-78.86978 56.9563,-79.68437 -0.9599,-0.44491 -6.6153,4.10148 -12.5561,10.10323 z m -1161.9309,25.61672 c -21.37903,1.755 -34.59015,5.23775 -50.2593,13.24873 -23.99662,12.26812 -42.20552,33.42795 -50.76129,58.9876 -5.25332,15.68861 -5.3052,55.05994 -0.0895,69.04413 10.07339,27.02799 35.6979,47.89597 66.19177,53.9068 15.95711,3.14551 45.66102,2.28941 62.82832,-1.81206 6.4519,-1.53968 11.4912,-1.97681 11.4912,-0.99489 0,1.0338 10.9593,1.74851 26.8347,1.74851 h 26.836 l 10.9995,-20.03135 10.9996,-20.03134 h 38.7591 38.7577 l 2.3141,17.90018 c 1.2777,9.84511 2.5216,18.86005 2.768,20.03135 0.3139,1.46444 7.9553,2.13116 24.4481,2.13116 20.4412,0 23.9927,-0.44491 23.9927,-3.00023 0,-2.5618 -6.0355,-39.72025 -12.8012,-78.82957 -1.052,-6.09514 -4.3998,-26.80747 -7.4338,-46.02942 -3.0378,-19.22194 -6.6036,-41.30532 -7.9254,-49.07634 l -2.4074,-14.12688 -31.4706,0.48901 -31.4719,0.48902 -53.2946,90.35443 c -29.3083,49.69377 -54.7265,91.05747 -56.4789,91.91875 -1.7978,0.88334 -2.2038,-5.94338 -0.9236,-15.63153 l 2.2661,-17.19715 -18.9055,4.32069 c -34.262,7.83198 -60.50001,1.54357 -73.26752,-17.55516 -8.98122,-13.43421 -8.91507,-50.8002 0.11804,-67.85467 15.20349,-28.69867 47.38748,-41.77748 86.12328,-34.99746 5.715,0.99878 13.9426,3.35304 18.2802,5.22997 l 7.8878,3.41141 4.2856,-15.03226 c 2.3582,-8.26911 5.0341,-16.69258 5.9421,-18.71867 1.3373,-2.9691 -1.3983,-4.36479 -14.0192,-7.16526 -21.9109,-4.86029 -42.5739,-6.6088 -60.6142,-5.1275 z m 2045.2921,2.92111 c -29.8855,6.45963 -54.0248,25.7153 -68.5136,54.65912 -10.4158,20.82778 -13.7105,77.57785 -5.5127,95.34055 6.1094,13.25132 20.6889,29.61961 31.1307,34.94946 12.3356,6.30528 34.0493,10.09804 52.9872,9.25751 57.9291,-2.56959 91.9784,-34.56811 102.7704,-96.56113 7.8345,-44.96708 -9.4949,-81.15659 -45.2693,-94.52725 -17.8094,-6.6555 -45.3342,-7.92537 -67.5927,-3.11826 z m -811.8383,0.69655 c -14.398,18.18944 -23.7631,30.88819 -23.0108,31.17486 0.5059,0.19586 6.2651,1.60842 12.7766,3.14031 14.9557,3.51259 28.6662,14.37593 34.2568,27.16159 6.6023,15.07247 6.4726,15.12176 -38.7967,14.49655 l -38.8745,-0.5357 -11.1034,13.63786 c -6.1094,7.50122 -12.6728,15.36433 -14.5925,17.47473 l -3.4892,3.83557 h 52.0143 52.0143 l -2.4905,6.39348 c -3.4633,8.9488 -22.7514,27.6532 -34.2308,33.20355 -14.1905,6.85655 -30.3006,8.81131 -53.6098,6.50244 -10.6104,-1.05196 -23.1924,-3.09232 -27.9658,-4.53601 -4.7734,-1.44369 -9.6376,-2.18045 -10.8179,-1.63826 -1.1674,0.54349 -7.7179,6.91363 -14.5407,14.15931 l -12.4004,13.1735 8.4053,3.08584 c 16.0842,5.90446 44.1538,11.68441 61.2887,12.61833 26.2147,1.43072 45.5417,-1.78872 68.2152,-11.35884 35.6577,-15.05172 57.1639,-38.76557 69.5513,-76.71786 11.1552,-34.16731 4.501,-64.21108 -19.1583,-86.4566 -15.8508,-14.91682 -47.669,-26.11611 -53.4412,-18.81465 z m -953.561,92.05884 c -10.8335,50.86636 -19.9626,93.63613 -20.283,95.0422 -0.4436,1.95476 4.3816,2.67725 20.4516,3.06638 l 21.0132,0.50977 2.0625,-5.62429 c 1.1285,-3.09232 8.6517,-37.37637 16.7198,-76.18605 8.0551,-38.80968 15.3448,-70.87955 16.175,-71.26738 0.8431,-0.38654 2.5423,16.02326 3.7746,36.46709 1.2323,20.44382 3.0612,50.59656 4.047,67.00506 0.9988,16.4098 1.8419,34.24514 1.8678,39.63724 l 0.052,9.8023 23.0757,-0.004 23.0627,-0.004 34.7368,-72.87581 c 19.0935,-40.08193 36.0079,-74.41008 37.5903,-76.28571 2.8407,-3.36731 2.8796,-3.36731 3.1131,-0.0389 0.2724,3.96658 -28.4198,137.65114 -31.027,144.52066 l -1.777,4.68777 h 23.5556 23.5556 l 2.2699,-8.09789 c 1.2323,-4.45429 9.6635,-43.3872 18.7044,-86.51757 9.0539,-43.13166 17.4462,-82.44981 18.6526,-87.37106 l 2.205,-8.9501 h -39.977 -39.9901 l -29.4964,63.07611 c -16.2269,34.69004 -30.7416,63.0748 -32.2592,63.0761 -1.5306,0.003 -2.7759,-28.38217 -2.7759,-63.07481 v -63.0774 h -39.6917 -39.7047 z m 323.1243,-80.97759 c -3.4504,6.32862 -8.5999,15.34357 -11.4536,20.03134 -2.8406,4.68907 -24.3598,40.99532 -47.8116,80.68315 -23.4389,39.68783 -43.6609,73.66964 -44.9321,75.51414 -2.1791,3.15718 -0.7134,3.3258 24.5674,2.85236 l 26.8762,-0.50329 10.766,-20.03134 10.7661,-20.03135 h 37.8498 37.8498 l 2.283,6.39348 c 1.2582,3.51648 2.3088,11.50801 2.3348,17.7601 0.052,16.53432 0.441,16.76132 28.3808,16.76132 h 23.8669 l -2.205,-8.95009 c -1.9846,-8.10308 -12.9582,-75.75541 -24.736,-152.57964 l -4.501,-29.40689 h -31.8182 -31.8183 z m 151.062,-4.26102 c -2.244,7.16267 -39.1859,178.77097 -39.1859,182.01246 0,0.93003 10.7142,1.67847 23.9966,1.67847 13.1917,0 23.9967,-0.27629 23.9967,-0.61354 0,-2.10911 11.3368,-54.40359 13.0879,-60.33271 l 2.1272,-7.24568 h 20.676 c 52.0533,0 83.4953,-22.1638 88.5152,-62.38993 3.8394,-30.84799 -9.1317,-49.46677 -39.3804,-56.51919 -13.8532,-3.22852 -22.4012,-3.83557 -54.0119,-3.83557 h -37.5645 z m 199.0682,-5.11453 c -5.7333,8.48054 -109.0614,185.70665 -109.0614,187.07122 0,1.00785 10.6493,1.73424 25.4104,1.73424 h 25.4105 l 10.7791,-20.03135 10.766,-20.03134 33.8417,-0.48901 33.8547,-0.48902 7.1601,-10.59224 c 3.9432,-5.82534 14.5147,-20.18181 23.4908,-31.90125 l 16.3177,-21.3103 -6.5245,-39.21048 c -3.5801,-21.56584 -6.6283,-40.93565 -6.771,-43.04606 -0.2334,-3.66824 -1.6084,-3.83557 -31.7274,-3.83557 -21.9601,0 -31.935,0.64467 -32.9467,2.13116 z m 398.6942,3.40882 c -1.6084,4.47764 -13.1527,60.40275 -33.5304,162.38193 -1.1285,5.62559 -2.9574,13.10605 -4.06,16.62123 l -2.0235,6.39348 h 24.1523 24.1523 l 1.9197,-5.53998 c 1.0507,-3.04822 4.514,-19.35036 7.666,-36.22712 3.1649,-16.87806 6.6023,-33.17891 7.64,-36.22713 l 1.8937,-5.53998 h 29.1462 c 16.0324,0 29.9115,0.57333 30.8584,1.27766 0.9339,0.70434 -1.4139,16.62253 -5.2404,35.37492 -3.8135,18.7524 -6.9784,36.97297 -7.0174,40.48815 l -0.091,6.39348 h 22.2585 c 14.5666,0 22.7774,-0.73676 23.7502,-2.13116 1.2582,-1.81596 39.0691,-183.90755 38.9394,-187.5265 -0.039,-1.11552 -48.0192,-1.96643 -48.0451,-0.8535 0,0.23348 -3.3207,16.15297 -7.3677,35.37491 -4.0599,19.22195 -7.3805,35.52279 -7.3805,36.22713 0,0.70433 -14.1256,1.27895 -31.3772,1.27895 -28.1993,0 -31.3772,-0.32428 -31.3772,-3.1896 0,-3.13902 9.0149,-46.20453 12.9841,-62.01896 l 2.0364,-8.09789 h -23.9577 -23.9577 z m 192.427,-4.26102 c -0.8691,0.70303 -2.7369,7.79825 -4.1508,15.76902 -1.4138,7.96948 -9.9229,48.7845 -18.9249,90.69817 -9.002,41.91627 -16.3696,77.77891 -16.3696,79.69864 0,3.38936 1.9457,3.49183 66.2307,3.49183 36.423,0 66.996,-0.57592 67.9299,-1.28155 0.9469,-0.70433 2.9185,-8.37547 4.3843,-17.04798 l 2.672,-15.76643 h -42.9215 c -49.9649,0 -45.2823,3.23889 -38.6929,-26.74911 l 4.2286,-19.28032 h 39.7046 39.7047 l 2.3608,-10.6545 c 1.2971,-5.85907 3.2687,-13.5315 4.3713,-17.04798 l 2.0235,-6.39348 h -38.8746 c -21.3764,0 -39.5231,-0.57462 -40.3273,-1.27896 -1.0896,-0.95727 6.3429,-38.51782 8.094,-40.91489 0.1816,-0.23348 19.1325,-0.42545 42.1303,-0.42545 h 41.819 l 3.3984,-17.04799 3.4114,-17.04927 -65.3097,0.001 c -35.9171,0 -66.0102,0.57462 -66.8922,1.27895 z m 154.6809,6.81893 c -1.2063,4.45429 -4.6696,19.98854 -7.6918,34.52142 -3.0353,14.53417 -11.3368,53.37239 -18.458,86.30743 -7.1211,32.93635 -12.9452,60.36254 -12.9452,60.94624 0,0.585 10.6493,1.06364 23.6724,1.06364 h 23.6723 l 2.0754,-6.39348 c 1.1544,-3.51518 3.8394,-15.59781 5.9927,-26.85028 2.1402,-11.25117 4.8641,-23.71905 6.0315,-27.70249 l 2.1532,-7.24568 h 20.0275 c 47.0853,0 74.8695,-15.52517 86.2841,-48.22544 5.2274,-14.95054 3.0352,-42.96563 -4.0989,-52.35674 -12.9711,-17.09987 -32.5187,-22.07041 -87.0234,-22.12489 l -37.4867,-0.0376 z m 162.2691,-2.55791 c -1.0896,3.04822 -9.443,42.74772 -18.5617,88.22327 -9.1317,45.47555 -17.55,85.94425 -18.7174,89.92769 l -2.1272,7.24568 h 24.0615 24.0485 l 1.9456,-5.53998 c 1.0766,-3.04822 7.7957,-34.69263 14.9169,-70.32309 7.1341,-35.63045 13.9569,-68.4254 15.1762,-72.8797 l 2.2051,-8.09788 h 38.2 c 21.0003,0 38.9394,-0.57463 39.8344,-1.27896 0.908,-0.70433 2.8407,-8.37547 4.3065,-17.04798 l 2.659,-15.76903 h -62.9879 -62.9619 z m 225.9445,29.48861 c 4.6955,1.51503 10.9217,6.76575 14.6574,12.35891 8.6128,12.86608 8.2756,53.05849 -0.6097,72.80058 -15.1373,33.60436 -51.6641,48.57566 -72.7162,29.80251 -26.1239,-23.29359 -11.4795,-95.15376 22.8422,-112.05906 12.3096,-6.07049 23.2961,-6.96031 35.8263,-2.90294 z m -1258.1885,2.6967 c 13.4121,6.64642 14.4109,29.61962 1.777,41.01737 -2.7888,2.52159 -8.7685,5.78254 -13.2954,7.24568 -9.7284,3.14681 -32.4279,3.58004 -32.4279,0.62003 0,-3.81223 7.6141,-41.40262 9.5208,-46.97243 1.7122,-4.99778 3.1261,-5.53997 14.5018,-5.53997 8.107,0 15.2152,1.29581 19.9237,3.62932 z m 941.4719,-1.95994 c 13.6197,3.36472 19.1065,21.12871 11.3238,36.6876 -4.5139,9.04089 -21.7137,16.19578 -38.9134,16.19578 -7.0823,0 -12.8155,-0.57462 -12.7507,-1.27766 0.052,-0.70433 2.5035,-12.40301 5.422,-25.99807 2.9185,-13.59636 5.37,-25.29504 5.4219,-25.99808 0.1557,-1.85358 21.5711,-1.57081 29.4964,0.39043 z m -1585.5362,53.31013 2.5839,25.14587 h -26.3081 c -23.3325,0 -26.0889,-0.33725 -24.3728,-2.98337 1.0623,-1.64085 9.5338,-17.17639 18.825,-34.52271 9.2874,-17.34632 17.9547,-32.68859 19.2609,-34.09596 2.9756,-3.20517 6.6633,13.91156 10.0111,46.45617 z m 453.9461,-23.01471 c 1.2972,13.83113 3.3336,30.32525 4.514,36.65257 l 2.1402,11.50801 h -26.6427 c -23.5426,0 -26.4482,-0.34633 -24.9695,-2.98337 0.908,-1.64085 9.7803,-18.13366 19.7032,-36.65387 9.9359,-18.51891 19.1454,-33.66921 20.4685,-33.66921 1.336,0 3.4892,11.31473 4.7863,25.14587 z m 347.2377,18.75239 2.685,29.40819 h -25.7866 -25.7737 l 16.3826,-30.2604 c 9.002,-16.64198 18.2374,-33.32936 20.5203,-37.07932 l 4.1378,-6.81894 2.5683,7.67114 c 1.4268,4.21952 3.7876,20.90431 5.2663,37.07933 z"
     fill="#284695"
     id="path1"
     style="stroke-width:12.9711" />
</svg>
